<?xml version="1.0"?>
<svg xmlns="http://www.w3.org/2000/svg" viewBox="0 0 64 64" width="512" height="512"><g id="Outline"><g><circle cx="27" cy="7" r="1"/><path d="M43.82,16.134a1,1,0,1,0,1.367.366A1,1,0,0,0,43.82,16.134Z"/><path d="M36.134,9.179A1,1,0,1,0,37.5,8.813,1,1,0,0,0,36.134,9.179Z"/><path d="M8.813,16.5a1,1,0,1,0,1.367-.366A1,1,0,0,0,8.813,16.5Z"/><circle cx="17" cy="9.68" r="1" transform="translate(3.25 23.595) rotate(-75)"/><path d="M21.565,6.716a1,1,0,1,0,1.225.707A1,1,0,0,0,21.565,6.716Z"/><path d="M40.435,12.151a1,1,0,1,0,1.414,0A1,1,0,0,0,40.435,12.151Z"/><path d="M31.21,7.423a1,1,0,1,0,1.225-.707A1,1,0,0,0,31.21,7.423Z"/><path d="M12.151,12.151a1,1,0,1,0,1.414,0A1,1,0,0,0,12.151,12.151Z"/><path d="M31.144,33.172,28.9,32.846l-1-2.033a1.041,1.041,0,0,0-1.794,0l-1,2.033-2.244.326a1,1,0,0,0-.554,1.705l1.623,1.583L23.542,38.7a1,1,0,0,0,1.451,1.055L27,38.694l2.007,1.056a1.008,1.008,0,0,0,.465.114,1,1,0,0,0,.986-1.169l-.383-2.235L31.7,34.877a1,1,0,0,0-.554-1.705ZM28.3,35.4a1,1,0,0,0-.288.884l.13.756-.679-.357a1,1,0,0,0-.93,0l-.679.357.13-.756A1,1,0,0,0,25.7,35.4l-.549-.536.759-.11a1,1,0,0,0,.753-.547L27,33.516l.339.687a1,1,0,0,0,.753.547l.759.11Z"/><path d="M47.951,33.853a1,1,0,0,0-.807-.681L44.9,32.846l-1-2.033a1.04,1.04,0,0,0-1.792,0l-1,2.033-2.244.326a1,1,0,0,0-.554,1.705l1.624,1.583L39.543,38.7a1,1,0,0,0,1.451,1.055L43,38.694l2.006,1.056A1,1,0,0,0,46.457,38.7l-.383-2.235L47.7,34.877A1,1,0,0,0,47.951,33.853ZM44.3,35.4a1,1,0,0,0-.287.884l.129.756-.678-.357a1,1,0,0,0-.932,0l-.678.357.129-.756A1,1,0,0,0,41.7,35.4l-.549-.536.758-.11a1,1,0,0,0,.753-.547l.34-.688.34.688a1,1,0,0,0,.753.547l.758.11Z"/><path d="M7.925,36.46,7.542,38.7A1,1,0,0,0,8.993,39.75L11,38.694l2.007,1.056a1.008,1.008,0,0,0,.465.114,1,1,0,0,0,.986-1.169l-.383-2.235L15.7,34.877a1,1,0,0,0-.554-1.705L12.9,32.846l-1-2.033a1.041,1.041,0,0,0-1.794,0l-1,2.033-2.244.326A1,1,0,0,0,6.3,34.877Zm1.983-1.71a1,1,0,0,0,.753-.547L11,33.516l.339.687a1,1,0,0,0,.753.547l.759.11L12.3,35.4a1,1,0,0,0-.288.884l.13.756-.679-.357a1,1,0,0,0-.93,0l-.679.357.13-.756A1,1,0,0,0,9.7,35.4l-.549-.536Z"/><path d="M62,17a5,5,0,1,0-4,4.9V30H56V24.445a1,1,0,1,0-2,0V30H52V27a5.006,5.006,0,0,0-5-5H43.241a17,17,0,0,0-30.989-3.466,1,1,0,0,0,1.734,1A15.009,15.009,0,0,1,41.149,22H30.926L33.2,19.786a1,1,0,0,0-.552-1.705L29.364,17.6,27.9,14.627a1.04,1.04,0,0,0-1.792,0L24.636,17.6l-3.282.484a1,1,0,0,0-.552,1.705L23.074,22H7a4.948,4.948,0,0,0-2.6.75A23,23,0,0,1,49,20.268a1,1,0,0,0,1.912-.585A25,25,0,0,0,2,27V43a5.009,5.009,0,0,0,4,4.9V61a1,1,0,0,0,2,0V48H34a1,1,0,0,0,0-2H7a3,3,0,0,1-2.816-2H47a1,1,0,0,0,0-2H36V28H50V43a3,3,0,0,1-3,3H38a1,1,0,0,0,0,2h8v.08A6.974,6.974,0,0,0,42.111,50H38a1,1,0,0,0-1,1V61a1,1,0,0,0,2,0V52h1.685A7,7,0,1,0,48,48.08V47.9A5.009,5.009,0,0,0,52,43V40h7a1,1,0,0,0,1-1V20.974A4.977,4.977,0,0,0,62,17ZM52,55a5,5,0,1,1-5-5A5.006,5.006,0,0,1,52,55ZM24.948,21.034l-1.3-1.269,1.8-.266a1,1,0,0,0,.75-.546l.8-1.626.8,1.626a1,1,0,0,0,.75.546l1.8.266-1.3,1.269a1,1,0,0,0-.288.882l.014.084H25.222l.014-.084A1,1,0,0,0,24.948,21.034ZM7,24H47a3,3,0,0,1,2.816,2H7a1,1,0,0,0,0,2H18V42H4V27A3,3,0,0,1,7,24Zm13,4H34V42H20ZM58,38H52V32h6ZM57,20a3,3,0,1,1,3-3A3,3,0,0,1,57,20Z"/><path d="M28,54H16a5.006,5.006,0,0,0-5,5v2a1,1,0,0,0,2,0V59a3,3,0,0,1,3-3H28a3,3,0,0,1,3,3v2a1,1,0,0,0,2,0V59A5.006,5.006,0,0,0,28,54Z"/><path d="M46.052,51.855a3.49,3.49,0,0,1-2.2,2.2,1,1,0,0,0,0,1.9,3.49,3.49,0,0,1,2.2,2.2,1,1,0,0,0,1.9,0,3.49,3.49,0,0,1,2.2-2.2,1,1,0,0,0,0-1.9,3.49,3.49,0,0,1-2.2-2.2,1,1,0,0,0-1.9,0ZM47,55.791A5.476,5.476,0,0,0,46.209,55,5.476,5.476,0,0,0,47,54.209a5.476,5.476,0,0,0,.791.791A5.476,5.476,0,0,0,47,55.791Z"/></g></g></svg>
